<svg xmlns="http://www.w3.org/2000/svg" width="96.25" height="29.264" viewBox="0 0 96.25 29.264">
  <g id="Gruppe_21" data-name="Gruppe 21" transform="translate(-150 -5748)">
    <text id="Logo" transform="translate(187.25 5771)" fill="#fff" font-size="24" font-family="HelveticaNeue-Bold, Helvetica Neue" font-weight="700"><tspan x="0" y="0">Logo</tspan></text>
    <g id="Icon_ionic-ios-basketball" data-name="Icon ionic-ios-basketball" transform="translate(146.625 5744.632)">
      <path id="Pfad_111" data-name="Pfad 111" d="M15.37,21.544c1.005-.83,1.99-1.716,2.911-2.644l.429-.429c-.2-.2-.394-.408-.584-.6a40.007,40.007,0,0,0-12.08-8.3,14.564,14.564,0,0,0-2.517,6.3,17.746,17.746,0,0,1,6.483,1.723A17.961,17.961,0,0,1,15.37,21.544Z" fill="#f43f5e"/>
      <path id="Pfad_112" data-name="Pfad 112" d="M22.929,13.05c.035.035.077.077.12.113A40.207,40.207,0,0,0,26.81,6.314,14.564,14.564,0,0,0,18.3,3.368a16.124,16.124,0,0,0,1.174,4.549A15.987,15.987,0,0,0,22.929,13.05Z" fill="#f43f5e"/>
      <path id="Pfad_113" data-name="Pfad 113" d="M28.055,16.509a15.8,15.8,0,0,0,4.57,1.174A14.6,14.6,0,0,0,28.252,7.566a41.763,41.763,0,0,1-3.825,6.806A15.982,15.982,0,0,0,28.055,16.509Z" fill="#f43f5e"/>
      <path id="Pfad_114" data-name="Pfad 114" d="M13.634,22.366a16.132,16.132,0,0,0-5.126-3.459,16.075,16.075,0,0,0-5.126-1.223c0,.105-.007.211-.007.309a14.524,14.524,0,0,0,3.15,9.063,40.087,40.087,0,0,0,7.411-4.388C13.83,22.57,13.732,22.465,13.634,22.366Z" fill="#f43f5e"/>
      <path id="Pfad_115" data-name="Pfad 115" d="M19.955,17.128c.71-.795,1.385-1.624,2.025-2.468a17.9,17.9,0,0,1-5.5-11.215A14.58,14.58,0,0,0,7.235,8.1a41.771,41.771,0,0,1,6.722,3.874A43.135,43.135,0,0,1,19.955,17.128Z" fill="#f43f5e"/>
      <path id="Pfad_116" data-name="Pfad 116" d="M21.192,18.478a41.877,41.877,0,0,1,6.7,10.294,14.6,14.6,0,0,0,4.655-9.26,17.849,17.849,0,0,1-9.2-3.656C22.676,16.748,21.945,17.634,21.192,18.478Z" fill="#f43f5e"/>
      <path id="Pfad_117" data-name="Pfad 117" d="M16.545,22.936A17.818,17.818,0,0,1,20.13,32.47a14.5,14.5,0,0,0,6.293-2.517,39.961,39.961,0,0,0-6.483-10.139A42.03,42.03,0,0,1,16.545,22.936Z" fill="#f43f5e"/>
      <path id="Pfad_118" data-name="Pfad 118" d="M15.11,24.068A42.046,42.046,0,0,1,7.8,28.484,14.572,14.572,0,0,0,18,32.632c.105,0,.211,0,.316-.007A16.075,16.075,0,0,0,17.093,27.5,15.856,15.856,0,0,0,15.11,24.068Z" fill="#f43f5e"/>
    </g>
  </g>
</svg>
