<svg xmlns="http://www.w3.org/2000/svg" width="119" height="34.141" viewBox="0 0 119 34.141">
  <g id="Gruppe_20" data-name="Gruppe 20" transform="translate(-150 -71)">
    <text id="Logo" transform="translate(201 99)" font-size="28" font-family="HelveticaNeue-Bold, Helvetica Neue" font-weight="700"><tspan x="0" y="0">Logo</tspan></text>
    <g id="Icon_ionic-ios-basketball" data-name="Icon ionic-ios-basketball" transform="translate(150 71)">
      <path id="Pfad_111" data-name="Pfad 111" d="M17.344,23.539c1.173-.968,2.321-2,3.4-3.084l.5-.5c-.23-.238-.459-.476-.681-.7A46.675,46.675,0,0,0,6.466,9.57,16.991,16.991,0,0,0,3.53,16.92a20.7,20.7,0,0,1,7.563,2.01A20.955,20.955,0,0,1,17.344,23.539Z" transform="translate(-3.349 -2.334)" fill="#f43f5e"/>
      <path id="Pfad_112" data-name="Pfad 112" d="M23.7,14.664c.041.041.09.09.139.131a46.909,46.909,0,0,0,4.389-7.99A16.991,16.991,0,0,0,18.3,3.368a18.811,18.811,0,0,0,1.37,5.307A18.652,18.652,0,0,0,23.7,14.664Z" transform="translate(-0.887 -3.368)" fill="#f43f5e"/>
      <path id="Pfad_113" data-name="Pfad 113" d="M28.659,18a18.434,18.434,0,0,0,5.332,1.37,17.03,17.03,0,0,0-5.1-11.8,48.724,48.724,0,0,1-4.463,7.941A18.645,18.645,0,0,0,28.659,18Z" transform="translate(0.134 -2.668)" fill="#f43f5e"/>
      <path id="Pfad_114" data-name="Pfad 114" d="M15.343,23.147a18.821,18.821,0,0,0-5.98-4.036,18.754,18.754,0,0,0-5.98-1.427c0,.123-.008.246-.008.361A16.944,16.944,0,0,0,7.05,28.618,46.768,46.768,0,0,0,15.7,23.5C15.573,23.385,15.458,23.262,15.343,23.147Z" transform="translate(-3.375 -0.982)" fill="#f43f5e"/>
      <path id="Pfad_115" data-name="Pfad 115" d="M22.075,19.409c.829-.927,1.616-1.895,2.362-2.879A20.879,20.879,0,0,1,18.022,3.445,17.011,17.011,0,0,0,7.235,8.876a48.733,48.733,0,0,1,7.842,4.52A50.324,50.324,0,0,1,22.075,19.409Z" transform="translate(-2.732 -3.355)" fill="#f43f5e"/>
      <path id="Pfad_116" data-name="Pfad 116" d="M21.192,18.915A48.857,48.857,0,0,1,29.01,30.925a17.032,17.032,0,0,0,5.43-10.8,20.824,20.824,0,0,1-10.73-4.266C22.923,16.9,22.07,17.931,21.192,18.915Z" transform="translate(-0.405 -1.287)" fill="#f43f5e"/>
      <path id="Pfad_117" data-name="Pfad 117" d="M16.545,23.456A20.788,20.788,0,0,1,20.728,34.58a16.918,16.918,0,0,0,7.342-2.937,46.621,46.621,0,0,0-7.563-11.829A49.035,49.035,0,0,1,16.545,23.456Z" transform="translate(-1.18 -0.627)" fill="#f43f5e"/>
      <path id="Pfad_118" data-name="Pfad 118" d="M16.329,24.068A49.053,49.053,0,0,1,7.8,29.22a17,17,0,0,0,11.9,4.84c.123,0,.246,0,.369-.008a18.754,18.754,0,0,0-1.427-5.98A18.5,18.5,0,0,0,16.329,24.068Z" transform="translate(-2.638 0.082)" fill="#f43f5e"/>
    </g>
  </g>
</svg>
