<svg id="teaser_pic" xmlns="http://www.w3.org/2000/svg" width="680.897" height="598.374" viewBox="0 0 680.897 598.374">
  <path id="Pfad_1" data-name="Pfad 1" d="M386.572,563.7a4.755,4.755,0,0,1-6.357-6.275l-.2-1.321-.239-.237c-8.064-7.943-21.724-2.156-21.7,9.163.023,10.046-.919,20.512,1.75,30.029a37.773,37.773,0,0,0,5.621,11.731,151.445,151.445,0,0,1-36.964-52.724,146.182,146.182,0,0,1-5.451-15.4q-1.874-6.433-3.175-13a153.2,153.2,0,0,1,3-71.623,40.771,40.771,0,0,0,8.862-22.77,31.1,31.1,0,0,0-.667-8.932c-.72.418-1.468.8-2.209,1.172l-.709.34-.088.041a4.711,4.711,0,0,1-6.529-5.589q.24-.813.48-1.626c.239-.833.495-1.659.733-2.492a2.341,2.341,0,0,0,.084-.255c.277-.952.559-1.891.836-2.843a13.622,13.622,0,0,0-5.785-2.261c-7.165-.966-14.13,4.688-16.112,11.632s.272,14.583,4.438,20.483c3.564,5.052,8.395,9.032,13.459,12.621-.145.53-.308,1.053-.453,1.583a154.191,154.191,0,0,0-5.018,29.73,64.1,64.1,0,0,0-15.011-25.994c-6.787-6.741-15.991-10.96-24.514-15.677-10.238-5.666-22.434,3.771-19.13,15l.1.326q1.536.182,3.055.472a6.449,6.449,0,0,1,2.126,11.832l-.113.069a64.179,64.179,0,0,0,5.26,8.2,66.072,66.072,0,0,0,46.321,25.523c.591.046,1.17.1,1.756.131a157.379,157.379,0,0,0,7.556,40.051,149.275,149.275,0,0,0,9.393,22.2l-.147-.247a39.444,39.444,0,0,0-21.206-15.822c-12.843-3.858-27.559-1.105-40.512-3.108-6.235-.964-10.956,5.622-7.684,11.016l.157.258a43.329,43.329,0,0,1,5.385.287q1.536.182,3.055.472a6.449,6.449,0,0,1,2.126,11.832l-.114.069-.234.142a64.227,64.227,0,0,0,18.033,12.513,66.131,66.131,0,0,0,52.365.923l.013-.005a157.335,157.335,0,0,0,21.649,24.393L398.7,595.173c-.037-.439-.091-.886-.141-1.32a42.9,42.9,0,0,1-9.879,3.454c1.259-4.252,2.508-8.528,3.767-12.78a2.354,2.354,0,0,0,.084-.255c.633-2.171,1.283-4.335,1.916-6.506v0a62.839,62.839,0,0,0-7.871-14.059Zm-72.688-61.8.008-.032,0,.057Zm21.353,72.785-.581-.549c-.191-.492-.395-.979-.616-1.473-.057-.137-.14-.264-.2-.4.472.815.932,1.634,1.417,2.444Z" transform="translate(-254.97 -154.184)" fill="#f2f2f2"/>
  <path id="Pfad_2" data-name="Pfad 2" d="M706.25,324.3a62.834,62.834,0,0,0-1.841,16.007v0c1.421,1.759,2.855,3.5,4.276,5.264a2.328,2.328,0,0,0,.176.2c2.8,3.437,5.6,6.9,8.4,10.339a42.9,42.9,0,0,1-10.447.622c.122.419.244.853.379,1.272h37.756a157.332,157.332,0,0,0,10.569-30.854h.014a66.131,66.131,0,0,0,47.96-21.043,64.228,64.228,0,0,0,11.814-18.5l-.271-.041-.132-.02a6.45,6.45,0,0,1-2.6-11.737q1.289-.852,2.637-1.613a43.333,43.333,0,0,1,4.858-2.341q.023-.149.046-.3c.939-6.239-5.956-10.495-11.338-7.2-11.179,6.842-25.819,9.977-36.181,18.489a39.444,39.444,0,0,0-13.465,22.776l-.041.284a149.263,149.263,0,0,0,.108-24.1,157.375,157.375,0,0,0-8.471-39.867c.528-.257,1.042-.528,1.57-.8a66.072,66.072,0,0,0,32.9-41.41,64.172,64.172,0,0,0,1.691-9.595l-.131-.02a6.449,6.449,0,0,1-2.6-11.737q1.289-.852,2.637-1.613-.018-.169-.036-.338c-1.279-11.631-16.171-15.636-23.433-6.46-6.046,7.639-12.911,15.081-16.574,23.917a64.1,64.1,0,0,0-3.827,29.772,154.188,154.188,0,0,0-16.093-25.5c-.338-.433-.69-.853-1.029-1.286,3.288-5.264,6.211-10.8,7.551-16.835,1.57-7.05.717-14.967-3.8-20.61s-13.113-8.174-19.352-4.52a13.621,13.621,0,0,0-4.466,4.317c.623.771,1.245,1.529,1.868,2.3a2.351,2.351,0,0,0,.176.2c.541.677,1.1,1.34,1.637,2.016l1.07,1.315a4.711,4.711,0,0,1-3.869,7.675l-.1,0-.785-.041c-.825-.054-1.664-.122-2.49-.23a31.1,31.1,0,0,0,2.828,8.5,40.771,40.771,0,0,0,16.956,17.592,153.2,153.2,0,0,1,30.381,64.93q1.34,6.557,2.084,13.221a146.177,146.177,0,0,1,.907,16.307,151.445,151.445,0,0,1-13.776,62.9,37.773,37.773,0,0,0,.663-12.991c-1.208-9.81-6.112-19.1-9.964-28.382-4.34-10.453-19.176-10.525-23.553-.088l-.129.311.326,1.3a4.755,4.755,0,0,1-3.446,8.241Zm43.237-85.026-.02-.054.02.027Zm8.35,75.391c.135-.934.244-1.868.365-2.8,0,.149-.027.3-.027.447-.014.541-.014,1.069,0,1.6l-.325.731Z" transform="translate(-262.133 -138.823)" fill="#f2f2f2"/>
  <path id="Pfad_3" data-name="Pfad 3" d="M668.212,556.96H552.7a6.163,6.163,0,0,0-6.154,6.17V745.6H674.381V563.13a6.166,6.166,0,0,0-6.17-6.17ZM610.845,660.638A13.7,13.7,0,0,1,597.205,647V625.952a13.64,13.64,0,0,1,27.28,0V647a13.7,13.7,0,0,1-13.64,13.64Z" transform="translate(-259.722 -162.803)" fill="#e6e6e6"/>
  <path id="Pfad_4" data-name="Pfad 4" d="M546.151,739.765v17.6a3.449,3.449,0,0,0,3.442,3.442H671.336a3.459,3.459,0,0,0,3.442-3.442v-17.6Z" transform="translate(-259.723 -162.803)" fill="#ccc"/>
  <path id="Pfad_5" data-name="Pfad 5" d="M850.6,272.192H365.447a15.891,15.891,0,0,0-15.724,16V621.387a15.881,15.881,0,0,0,15.724,16H850.6a15.881,15.881,0,0,0,15.724-16V288.2A15.891,15.891,0,0,0,850.6,272.192Z" transform="translate(-254.97 -151.26)" fill="#e6e6e6"/>
  <path id="Pfad_6" data-name="Pfad 6" d="M855.363,283.747H369.853a8.58,8.58,0,0,0-8.56,8.58v324.93a8.57,8.57,0,0,0,8.56,8.56h485.51a8.57,8.57,0,0,0,8.56-8.56V292.326a8.58,8.58,0,0,0-8.56-8.58Z" transform="translate(-264.134 -151.222)" fill="#fff"/>
  <path id="Pfad_7" data-name="Pfad 7" d="M423.1,607.19a53.049,53.049,0,0,1-3.345,18.629H369.851a8.573,8.573,0,0,1-8.558-8.558V554.487a52.712,52.712,0,0,1,8.434-.676A53.376,53.376,0,0,1,423.1,607.193Z" transform="translate(-256.521 -156.905)" fill="#f43f5e"/>
  <path id="Pfad_8" data-name="Pfad 8" d="M863.923,292.327v282.82a179.022,179.022,0,0,1-183.37-291.4h174.81a8.58,8.58,0,0,1,8.56,8.58Z" transform="translate(-264.134 -149.556)" fill="#e6e6e6"/>
  <path id="Pfad_9" data-name="Pfad 9" d="M830.958,328.52H376.665a1.807,1.807,0,1,1,0-3.614H830.958a1.807,1.807,0,1,1,0,3.614Z" transform="translate(-259.702 -146.035)" fill="#cacaca"/>
  <ellipse id="Ellipse_1" data-name="Ellipse 1" cx="10.588" cy="10.823" rx="10.588" ry="10.823" transform="translate(140.087 149.016)" fill="#3f3d56"/>
  <ellipse id="Ellipse_2" data-name="Ellipse 2" cx="10.588" cy="10.823" rx="10.588" ry="10.823" transform="translate(176.161 149.016)" fill="#3f3d56"/>
  <ellipse id="Ellipse_3" data-name="Ellipse 3" cx="10.588" cy="10.823" rx="10.588" ry="10.823" transform="translate(212.234 149.016)" fill="#3f3d56"/>
  <path id="Pfad_10" data-name="Pfad 10" d="M808.937,296.718H782.956a1.967,1.967,0,1,0,0,3.935h25.981a1.967,1.967,0,1,0,0-3.935Z" transform="translate(-262.272 -144.946)" fill="#3f3d56"/>
  <path id="Pfad_11" data-name="Pfad 11" d="M808.937,304.1H782.956a1.967,1.967,0,1,0,0,3.935h25.981a1.967,1.967,0,1,0,0-3.935Z" transform="translate(-262.272 -145.232)" fill="#3f3d56"/>
  <path id="Pfad_12" data-name="Pfad 12" d="M808.937,311.477H782.956a1.967,1.967,0,1,0,0,3.935h25.981a1.967,1.967,0,1,0,0-3.935Z" transform="translate(-262.272 -145.518)" fill="#3f3d56"/>
  <ellipse id="Ellipse_4" data-name="Ellipse 4" cx="6.76" cy="21.534" rx="6.76" ry="21.534" transform="translate(266.33 52.43) rotate(-64.626)" fill="#2f2e41"/>
  <ellipse id="Ellipse_5" data-name="Ellipse 5" cx="6.76" cy="21.534" rx="6.76" ry="21.534" transform="translate(362.66 70.845) rotate(-39.938)" fill="#2f2e41"/>
  <circle id="Ellipse_6" data-name="Ellipse 6" cx="43.067" cy="43.067" r="43.067" transform="translate(293.438 32.467)" fill="#2f2e41"/>
  <rect id="Rechteck_1" data-name="Rechteck 1" width="13.084" height="23.442" transform="translate(341.486 104.956)" fill="#2f2e41"/>
  <rect id="Rechteck_2" data-name="Rechteck 2" width="13.084" height="23.442" transform="translate(315.672 104.956)" fill="#2f2e41"/>
  <ellipse id="Ellipse_7" data-name="Ellipse 7" cx="10.903" cy="4.089" rx="10.903" ry="4.089" transform="translate(332.822 123.925)" fill="#2f2e41"/>
  <ellipse id="Ellipse_8" data-name="Ellipse 8" cx="10.903" cy="4.089" rx="10.903" ry="4.089" transform="translate(307.013 123.401)" fill="#2f2e41"/>
  <path id="Pfad_13" data-name="Pfad 13" d="M582.474,160.221c3.846-15.487,20.821-24.6,37.915-20.356s27.834,20.24,23.989,35.727-16.6,15.537-33.7,11.292S578.628,175.708,582.474,160.221Z" transform="translate(-259.749 -138.823)" fill="#f43f5e"/>
  <circle id="Ellipse_9" data-name="Ellipse 9" cx="14.359" cy="14.359" r="14.359" transform="translate(315.792 52.088)" fill="#fff"/>
  <circle id="Ellipse_10" data-name="Ellipse 10" cx="4.786" cy="4.786" r="4.786" transform="translate(324.471 67.514)" fill="#3f3d56"/>
  <path id="Pfad_14" data-name="Pfad 14" d="M607.8,231.267c.947,5.2-11.739,14.1-16.941,15.051a9.572,9.572,0,0,1-11.132-7.7h0l0-.018c-.942-5.2,3.08-7.043,8.283-7.985S606.861,226.064,607.8,231.267Z" transform="translate(-259.465 -138.823)" fill="#fff"/>
  <ellipse id="Ellipse_11" data-name="Ellipse 11" cx="21.534" cy="6.76" rx="21.534" ry="6.76" transform="translate(474.791 387.715) rotate(-52.453)" fill="#2f2e41"/>
  <circle id="Ellipse_12" data-name="Ellipse 12" cx="43.067" cy="43.067" r="43.067" transform="translate(492.605 324.286)" fill="#2f2e41"/>
  <rect id="Rechteck_3" data-name="Rechteck 3" width="13.084" height="23.442" transform="translate(543.914 399.665)" fill="#2f2e41"/>
  <rect id="Rechteck_4" data-name="Rechteck 4" width="13.084" height="23.442" transform="translate(518.101 399.665)" fill="#2f2e41"/>
  <ellipse id="Ellipse_13" data-name="Ellipse 13" cx="10.903" cy="4.089" rx="10.903" ry="4.089" transform="translate(535.214 418.938)" fill="#2f2e41"/>
  <ellipse id="Ellipse_14" data-name="Ellipse 14" cx="10.903" cy="4.089" rx="10.903" ry="4.089" transform="translate(509.405 418.414)" fill="#2f2e41"/>
  <circle id="Ellipse_15" data-name="Ellipse 15" cx="14.719" cy="14.719" r="14.719" transform="translate(521.688 342.477)" fill="#fff"/>
  <circle id="Ellipse_16" data-name="Ellipse 16" cx="4.906" cy="4.906" r="4.906" transform="translate(530.594 359.094)" fill="#3f3d56"/>
  <path id="Pfad_15" data-name="Pfad 15" d="M841.583,481.306c3.477-15.574-7.639-31.31-24.829-35.149s-33.944,5.675-37.422,21.249,7.915,21.318,25.1,25.156S838.105,496.88,841.583,481.306Z" transform="translate(-264.134 -151.653)" fill="#f98d3e"/>
  <ellipse id="Ellipse_17" data-name="Ellipse 17" cx="6.76" cy="21.534" rx="6.76" ry="21.534" transform="translate(561.704 368.426) rotate(-25.871)" fill="#2f2e41"/>
  <path id="Pfad_16" data-name="Pfad 16" d="M820.96,536.895c0,4.215-10.853,12.539-22.9,12.539s-23.335-11.867-23.335-16.082,11.292.818,23.335.818S820.96,532.679,820.96,536.895Z" transform="translate(-262.368 -154.405)" fill="#fff"/>
  <circle id="Ellipse_18" data-name="Ellipse 18" cx="43.067" cy="43.067" r="43.067" transform="translate(462.357 460.487)" fill="#2f2e41"/>
  <rect id="Rechteck_5" data-name="Rechteck 5" width="13.084" height="23.442" transform="translate(486.251 537.354)" fill="#2f2e41"/>
  <rect id="Rechteck_6" data-name="Rechteck 6" width="13.084" height="23.442" transform="translate(512.064 537.354)" fill="#2f2e41"/>
  <ellipse id="Ellipse_19" data-name="Ellipse 19" cx="4.089" cy="10.903" rx="4.089" ry="10.903" transform="translate(484.473 563.107) rotate(-64.723)" fill="#2f2e41"/>
  <ellipse id="Ellipse_20" data-name="Ellipse 20" cx="4.089" cy="10.903" rx="4.089" ry="10.903" transform="translate(510.239 563.219) rotate(-67.94)" fill="#2f2e41"/>
  <path id="Pfad_17" data-name="Pfad 17" d="M725.742,626.306c-3.477-15.574,7.639-31.31,24.829-35.149s33.944,5.675,37.422,21.249-7.915,21.318-25.1,25.156S729.219,641.88,725.742,626.306Z" transform="translate(-261.846 -157.723)" fill="#f43f5e"/>
  <ellipse id="Ellipse_21" data-name="Ellipse 21" cx="23.892" cy="7.501" rx="23.892" ry="7.501" transform="matrix(0.326, -0.945, 0.945, 0.326, 534.254, 503.576)" fill="#2f2e41"/>
  <ellipse id="Ellipse_22" data-name="Ellipse 22" cx="7.501" cy="23.892" rx="7.501" ry="23.892" transform="translate(432.524 474.726) rotate(-44.978)" fill="#2f2e41"/>
  <circle id="Ellipse_23" data-name="Ellipse 23" cx="43.067" cy="43.067" r="43.067" transform="translate(141.381 493.704)" fill="#2f2e41"/>
  <rect id="Rechteck_7" data-name="Rechteck 7" width="13.084" height="23.442" transform="translate(164.74 570.571)" fill="#2f2e41"/>
  <rect id="Rechteck_8" data-name="Rechteck 8" width="13.084" height="23.442" transform="translate(190.553 570.571)" fill="#2f2e41"/>
  <ellipse id="Ellipse_24" data-name="Ellipse 24" cx="10.903" cy="4.089" rx="10.903" ry="4.089" transform="translate(164.71 590.197)" fill="#2f2e41"/>
  <ellipse id="Ellipse_25" data-name="Ellipse 25" cx="10.903" cy="4.089" rx="10.903" ry="4.089" transform="translate(190.519 589.651)" fill="#2f2e41"/>
  <path id="Pfad_18" data-name="Pfad 18" d="M399.819,659.523c-3.477-15.574,7.639-31.31,24.829-35.149s33.944,5.675,37.422,21.249-7.915,21.318-25.1,25.156S403.3,675.1,399.819,659.523Z" transform="translate(-257.079 -162.803)" fill="#3f3d56"/>
  <ellipse id="Ellipse_26" data-name="Ellipse 26" cx="7.501" cy="23.892" rx="7.501" ry="23.892" transform="translate(193.295 532.107) rotate(-62.122)" fill="#2f2e41"/>
  <ellipse id="Ellipse_27" data-name="Ellipse 27" cx="21.534" cy="6.76" rx="21.534" ry="6.76" transform="translate(153.195 328.228) rotate(-25.374)" fill="#2f2e41"/>
  <ellipse id="Ellipse_28" data-name="Ellipse 28" cx="21.534" cy="6.76" rx="21.534" ry="6.76" transform="translate(64.433 363.583) rotate(-50.062)" fill="#2f2e41"/>
  <circle id="Ellipse_29" data-name="Ellipse 29" cx="43.067" cy="43.067" r="43.067" transform="translate(86.179 301.017)" fill="#2f2e41"/>
  <rect id="Rechteck_9" data-name="Rechteck 9" width="13.084" height="23.442" transform="translate(111.017 376.282)" fill="#2f2e41"/>
  <rect id="Rechteck_10" data-name="Rechteck 10" width="13.084" height="23.442" transform="translate(135.328 376.282)" fill="#2f2e41"/>
  <ellipse id="Ellipse_30" data-name="Ellipse 30" cx="10.903" cy="4.089" rx="10.903" ry="4.089" transform="translate(111.017 395.531)" fill="#2f2e41"/>
  <ellipse id="Ellipse_31" data-name="Ellipse 31" cx="10.903" cy="4.089" rx="10.903" ry="4.089" transform="translate(135.303 395.007)" fill="#2f2e41"/>
  <path id="Pfad_19" data-name="Pfad 19" d="M397.738,442.863c-3.846-15.487-20.821-24.6-37.915-20.356s-27.834,20.24-23.989,35.727,16.6,15.537,33.7,11.292S401.584,458.35,397.738,442.863Z" transform="translate(-254.97 -150.675)" fill="#f43f5e"/>
  <circle id="Ellipse_32" data-name="Ellipse 32" cx="14.359" cy="14.359" r="14.359" transform="translate(119.645 321.209)" fill="#fff"/>
  <circle id="Ellipse_33" data-name="Ellipse 33" cx="4.786" cy="4.786" r="4.786" transform="translate(130.025 336.453)" fill="#3f3d56"/>
  <path id="Pfad_20" data-name="Pfad 20" d="M381.647,517.827a9.572,9.572,0,0,0,18.835,3.429h0l0-.018c.942-5.2-3.08-7.043-8.283-7.985S382.589,512.625,381.647,517.827Z" transform="translate(-256.698 -153.621)" fill="#fff"/>
  <path id="Pfad_21" data-name="Pfad 21" d="M934.692,760.8l-657.619.307a1.191,1.191,0,0,1,0-2.381l657.619-.307a1.191,1.191,0,0,1,0,2.381Z" transform="translate(-254.97 -162.803)" fill="#cacaca"/>
</svg>
