<svg xmlns="http://www.w3.org/2000/svg" width="774" height="544.671" viewBox="0 0 774 544.671">
  <g id="ux_design" transform="translate(-916 -2153.664)">
    <g id="Rechteck_63" data-name="Rechteck 63" transform="translate(1110 2212)" fill="#fff" stroke="#707070" stroke-width="1">
      <rect width="347" height="485" stroke="none"/>
      <rect x="0.5" y="0.5" width="346" height="484" fill="none"/>
    </g>
    <g id="Gruppe_18" data-name="Gruppe 18" transform="translate(916 2153.665)">
      <circle id="Ellipse_46" data-name="Ellipse 46" cx="62.878" cy="62.878" r="62.878" transform="translate(462.065 215.358)" fill="#f43f5e" opacity="0.4"/>
      <rect id="Rechteck_22" data-name="Rechteck 22" width="350.631" height="95.031" transform="translate(192.317 358.012)" fill="#3f3d56"/>
      <path id="Pfad_95" data-name="Pfad 95" d="M728.171,271.3l-14,6.626,12.391-9.265a69.936,69.936,0,0,0-6.766-8.9l-60.718,15.092,54.846-20.922a69.9,69.9,0,0,0-7.964-6.071l-92.521,14.9a69.339,69.339,0,0,0-15.186,43.272H737.521a69.3,69.3,0,0,0-9.35-34.732Z" transform="translate(-217.088 -134.321)" fill="#f2f2f2"/>
      <path id="Pfad_96" data-name="Pfad 96" d="M661.763,143.092A406.317,406.317,0,0,0,483.07,101.97c-126.022,0-238.692,57.144-313.528,146.928C297.691,220.82,520.809,172.214,661.763,143.092Z" transform="translate(-101.308 -101.971)" fill="#f2f2f2"/>
      <rect id="Rechteck_23" data-name="Rechteck 23" width="771.501" height="1.638" transform="translate(0 542.854)" fill="#2f2e41"/>
      <path id="Pfad_97" data-name="Pfad 97" d="M671.656,303.335l-47.4-70.413s71.79,25.062,63.643,70.413Z" transform="translate(-219.852 -131.139)" fill="#3f3d56"/>
      <path id="Pfad_98" data-name="Pfad 98" d="M680.662,303.335l47.4-70.413s-71.79,25.062-63.643,70.413Z" transform="translate(-229.668 -131.139)" fill="#f98d3e"/>
      <path id="Pfad_99" data-name="Pfad 99" d="M707.2,656.569H355.752v-498.7H707.2ZM357.39,655.01H705.564V159.431H357.39Z" transform="translate(-163.84 -112.076)" fill="#2f2e41"/>
      <rect id="Rechteck_24" data-name="Rechteck 24" width="349.811" height="1.638" transform="translate(193.077 58.233)" fill="#2f2e41"/>
      <circle id="Ellipse_47" data-name="Ellipse 47" cx="3.277" cy="3.277" r="3.277" transform="translate(210.263 49.073)" fill="#f43f5e"/>
      <circle id="Ellipse_48" data-name="Ellipse 48" cx="3.277" cy="3.277" r="3.277" transform="translate(218.583 49.073)" fill="#f43f5e"/>
      <circle id="Ellipse_49" data-name="Ellipse 49" cx="3.277" cy="3.277" r="3.277" transform="translate(226.903 49.073)" fill="#f43f5e"/>
      <rect id="Rechteck_25" data-name="Rechteck 25" width="14.746" height="8.192" transform="translate(216.136 69.554)" fill="#f43f5e"/>
      <rect id="Rechteck_26" data-name="Rechteck 26" width="72.092" height="8.192" transform="translate(214.782 128.155)" fill="#f98d3e"/>
      <rect id="Rechteck_27" data-name="Rechteck 27" width="72.092" height="8.192" transform="translate(521.934 77.746) rotate(180)" fill="#f2f2f2"/>
      <rect id="Rechteck_28" data-name="Rechteck 28" width="121.246" height="4.915" transform="translate(213.451 141.487)" fill="#f2f2f2"/>
      <rect id="Rechteck_29" data-name="Rechteck 29" width="114.692" height="4.915" transform="translate(213.639 151.654)" fill="#f2f2f2"/>
      <rect id="Rechteck_30" data-name="Rechteck 30" width="83.562" height="4.915" transform="translate(214.487 161.822)" fill="#f2f2f2"/>
      <rect id="Rechteck_31" data-name="Rechteck 31" width="47.515" height="4.915" transform="translate(240.992 301.039)" fill="#f2f2f2"/>
      <rect id="Rechteck_32" data-name="Rechteck 32" width="44.947" height="4.915" transform="translate(241.06 311.207)" fill="#f2f2f2"/>
      <rect id="Rechteck_33" data-name="Rechteck 33" width="32.747" height="4.915" transform="translate(241.378 321.374)" fill="#f2f2f2"/>
      <rect id="Rechteck_34" data-name="Rechteck 34" width="47.515" height="4.915" transform="translate(342.66 301.039)" fill="#f2f2f2"/>
      <rect id="Rechteck_35" data-name="Rechteck 35" width="44.947" height="4.915" transform="translate(342.757 311.207)" fill="#f2f2f2"/>
      <rect id="Rechteck_36" data-name="Rechteck 36" width="32.747" height="4.915" transform="translate(343.209 321.374)" fill="#f2f2f2"/>
      <rect id="Rechteck_37" data-name="Rechteck 37" width="47.515" height="4.915" transform="translate(448.094 301.039)" fill="#f2f2f2"/>
      <rect id="Rechteck_38" data-name="Rechteck 38" width="44.947" height="4.915" transform="translate(448.221 311.207)" fill="#f2f2f2"/>
      <rect id="Rechteck_39" data-name="Rechteck 39" width="32.747" height="4.915" transform="translate(448.812 321.374)" fill="#f2f2f2"/>
      <rect id="Rechteck_40" data-name="Rechteck 40" width="72.092" height="8.192" transform="translate(307.905 475.677)" fill="#f98d3e"/>
      <rect id="Rechteck_41" data-name="Rechteck 41" width="121.246" height="4.915" transform="translate(305.996 489.604)" fill="#f2f2f2"/>
      <rect id="Rechteck_42" data-name="Rechteck 42" width="114.692" height="4.915" transform="translate(306.265 500.254)" fill="#f2f2f2"/>
      <rect id="Rechteck_43" data-name="Rechteck 43" width="83.562" height="4.915" transform="translate(307.482 510.904)" fill="#f2f2f2"/>
      <rect id="Rechteck_44" data-name="Rechteck 44" width="285.092" height="1.638" transform="translate(226.523 212.718)" fill="#6c63ff" opacity="0.3"/>
      <rect id="Rechteck_45" data-name="Rechteck 45" width="60.623" height="54.069" transform="translate(234.621 238.949)" fill="#f43f5e" opacity="0.3"/>
      <rect id="Rechteck_46" data-name="Rechteck 46" width="60.623" height="54.069" transform="translate(336.139 238.949)" fill="#3f3d56"/>
      <rect id="Rechteck_47" data-name="Rechteck 47" width="60.623" height="54.069" transform="translate(441.418 238.949)" fill="#3f3d56"/>
      <path id="Pfad_100" data-name="Pfad 100" d="M560.434,468.517l-.8-.016c.017-.886.517-21.76,8.735-27.529l.459.654C560.942,447.163,560.438,468.3,560.434,468.517Z" transform="translate(-201.69 -176.357)" fill="#f98d3e"/>
      <circle id="Ellipse_50" data-name="Ellipse 50" cx="3.999" cy="3.999" r="3.999" transform="translate(366.263 257.185)" fill="#f98d3e"/>
      <path id="Pfad_101" data-name="Pfad 101" d="M573.054,452.108a12.45,12.45,0,0,1-6.424.277,11.347,11.347,0,0,1,11.666-4,12.451,12.451,0,0,1-5.242,3.724Z" transform="translate(-203.486 -177.368)" fill="#f98d3e"/>
      <path id="Pfad_102" data-name="Pfad 102" d="M700.434,468.517l-.8-.016c.017-.886.517-21.76,8.735-27.529l.459.654C700.942,447.163,700.438,468.3,700.434,468.517Z" transform="translate(-235.83 -176.357)" fill="#f98d3e"/>
      <circle id="Ellipse_51" data-name="Ellipse 51" cx="3.999" cy="3.999" r="3.999" transform="translate(472.135 257.185)" fill="#f98d3e"/>
      <path id="Pfad_103" data-name="Pfad 103" d="M713.054,452.108a12.449,12.449,0,0,1-6.424.277,11.346,11.346,0,0,1,11.666-4A12.45,12.45,0,0,1,713.054,452.108Z" transform="translate(-237.652 -177.368)" fill="#f98d3e"/>
      <rect id="Rechteck_48" data-name="Rechteck 48" width="72.092" height="8.192" transform="translate(214.782 390.093)" fill="#f98d3e"/>
      <rect id="Rechteck_49" data-name="Rechteck 49" width="121.246" height="4.915" transform="translate(213.451 403.497)" fill="#f2f2f2"/>
      <rect id="Rechteck_50" data-name="Rechteck 50" width="114.692" height="4.915" transform="translate(213.639 413.664)" fill="#f2f2f2"/>
      <rect id="Rechteck_51" data-name="Rechteck 51" width="83.562" height="4.915" transform="translate(214.487 423.832)" fill="#f2f2f2"/>
      <circle id="Ellipse_52" data-name="Ellipse 52" cx="25.599" cy="25.599" r="25.599" transform="translate(436.998 374.961)" fill="#f43f5e" opacity="0.4"/>
      <circle id="Ellipse_53" data-name="Ellipse 53" cx="17.958" cy="17.958" r="17.958" transform="translate(401.155 394.433)" fill="#f43f5e" opacity="0.4"/>
      <circle id="Ellipse_54" data-name="Ellipse 54" cx="64.719" cy="64.719" r="64.719" transform="translate(72.502 386.791)" fill="#2f2e41"/>
      <rect id="Rechteck_52" data-name="Rechteck 52" width="19.662" height="35.227" transform="translate(107.729 502.302)" fill="#2f2e41"/>
      <rect id="Rechteck_53" data-name="Rechteck 53" width="19.662" height="35.227" transform="translate(147.052 502.302)" fill="#2f2e41"/>
      <ellipse id="Ellipse_55" data-name="Ellipse 55" cx="16.385" cy="6.144" rx="16.385" ry="6.144" transform="translate(107.729 531.795)" fill="#2f2e41"/>
      <ellipse id="Ellipse_56" data-name="Ellipse 56" cx="16.385" cy="6.144" rx="16.385" ry="6.144" transform="translate(135.398 530.975)" fill="#2f2e41"/>
      <circle id="Ellipse_57" data-name="Ellipse 57" cx="22.119" cy="22.119" r="22.119" transform="translate(116.74 417.263)" fill="#fff"/>
      <circle id="Ellipse_58" data-name="Ellipse 58" cx="7.373" cy="7.373" r="7.373" transform="translate(131.486 423.085)" fill="#3f3d56"/>
      <path id="Pfad_104" data-name="Pfad 104" d="M176.908,598.968c-5.226-23.4,11.479-47.052,37.311-52.82s51.009,8.528,56.235,31.932-11.894,32.035-37.726,37.8S182.134,622.371,176.908,598.968Z" transform="translate(-102.467 -200.773)" fill="#f98d3e"/>
      <ellipse id="Ellipse_59" data-name="Ellipse 59" cx="32.36" cy="10.159" rx="32.36" ry="10.159" transform="translate(150.185 411.639) rotate(-65.077)" fill="#2f2e41"/>
      <ellipse id="Ellipse_60" data-name="Ellipse 60" cx="10.159" cy="32.36" rx="10.159" ry="32.36" transform="translate(43.288 381.394) rotate(-27.893)" fill="#2f2e41"/>
      <ellipse id="Ellipse_61" data-name="Ellipse 61" cx="10.159" cy="32.36" rx="10.159" ry="32.36" transform="translate(598.477 382.317) rotate(-21.078)" fill="#2f2e41"/>
      <circle id="Ellipse_62" data-name="Ellipse 62" cx="64.719" cy="64.719" r="64.719" transform="translate(602.895 387.366)" fill="#2f2e41"/>
      <rect id="Rechteck_54" data-name="Rechteck 54" width="19.662" height="35.227" transform="translate(697.345 538.018) rotate(179.84)" fill="#2f2e41"/>
      <rect id="Rechteck_55" data-name="Rechteck 55" width="19.662" height="35.227" transform="translate(658.022 538.128) rotate(179.84)" fill="#2f2e41"/>
      <ellipse id="Ellipse_63" data-name="Ellipse 63" cx="16.385" cy="6.144" rx="16.385" ry="6.144" transform="translate(664.564 532.382) rotate(-0.16)" fill="#2f2e41"/>
      <ellipse id="Ellipse_64" data-name="Ellipse 64" cx="16.385" cy="6.144" rx="16.385" ry="6.144" transform="translate(625.239 531.673) rotate(-0.16)" fill="#2f2e41"/>
      <circle id="Ellipse_65" data-name="Ellipse 65" cx="22.119" cy="22.119" r="22.119" transform="translate(643.81 417.814)" fill="#fff"/>
      <circle id="Ellipse_66" data-name="Ellipse 66" cx="7.373" cy="7.373" r="7.373" transform="translate(658.557 433.016)" fill="#3f3d56"/>
      <path id="Pfad_105" data-name="Pfad 105" d="M1035.011,599.485c5.16-23.418-11.611-47.019-37.459-52.715s-50.985,8.671-56.146,32.089,11.984,32,37.832,37.7S1029.851,622.9,1035.011,599.485Z" transform="translate(-304.786 -200.917)" fill="#f98d3e"/>
      <ellipse id="Ellipse_67" data-name="Ellipse 67" cx="32.36" cy="10.159" rx="32.36" ry="10.159" transform="translate(706.845 431.503) rotate(-25.535)" fill="#2f2e41"/>
      <path id="Pfad_106" data-name="Pfad 106" d="M1002.993,711.773c.018,6.334-16.257,18.888-34.355,18.939s-35.117-17.735-35.134-24.069,16.972,1.181,35.07,1.131S1002.975,705.439,1002.993,711.773Z" transform="translate(-303.523 -236.429)" fill="#fff"/>
      <circle id="Ellipse_68" data-name="Ellipse 68" cx="90.318" cy="90.318" r="90.318" transform="translate(593.112 269.199)" fill="#f43f5e" opacity="0.4"/>
      <circle id="Ellipse_69" data-name="Ellipse 69" cx="64.719" cy="64.719" r="64.719" transform="translate(91.266 208.025)" fill="#2f2e41"/>
      <rect id="Rechteck_56" data-name="Rechteck 56" width="19.662" height="35.227" transform="translate(117.919 314.405) rotate(10.261)" fill="#2f2e41"/>
      <rect id="Rechteck_57" data-name="Rechteck 57" width="19.662" height="35.227" transform="translate(144.803 321.073) rotate(10.261)" fill="#2f2e41"/>
      <ellipse id="Ellipse_70" data-name="Ellipse 70" cx="6.144" cy="16.385" rx="6.144" ry="16.385" transform="matrix(0.646, -0.763, 0.763, 0.646, 135.265, 354.962)" fill="#2f2e41"/>
      <ellipse id="Ellipse_71" data-name="Ellipse 71" cx="6.144" cy="16.385" rx="6.144" ry="16.385" transform="matrix(0.646, -0.763, 0.763, 0.646, 109.022, 348.428)" fill="#2f2e41"/>
      <circle id="Ellipse_72" data-name="Ellipse 72" cx="22.119" cy="22.119" r="22.119" transform="translate(127.271 235.57)" fill="#fff"/>
      <circle id="Ellipse_73" data-name="Ellipse 73" cx="7.373" cy="7.373" r="7.373" transform="translate(149.657 242.713)" fill="#3f3d56"/>
      <path id="Pfad_107" data-name="Pfad 107" d="M214.33,354.605c-.973-23.96,19.677-44.254,46.123-45.329s48.674,17.478,49.648,41.438-17.41,29.4-43.857,30.478S215.3,378.565,214.33,354.605Z" transform="translate(-109.399 -148.167)" fill="#f98d3e"/>
      <ellipse id="Ellipse_74" data-name="Ellipse 74" cx="32.36" cy="10.159" rx="32.36" ry="10.159" transform="matrix(0.975, -0.223, 0.223, 0.975, 166.865, 258.85)" fill="#2f2e41"/>
      <ellipse id="Ellipse_75" data-name="Ellipse 75" cx="32.36" cy="10.159" rx="32.36" ry="10.159" transform="matrix(0.975, -0.223, 0.223, 0.975, 54.891, 278.967)" fill="#2f2e41"/>
      <path id="Pfad_108" data-name="Pfad 108" d="M254.907,480a14.746,14.746,0,1,0,29.021,5.254c1.451-8.014-4.745-10.85-12.759-12.3S256.358,471.983,254.907,480Z" transform="translate(-116.697 -183.168)" fill="#fff"/>
      <rect id="Rechteck_58" data-name="Rechteck 58" width="60.623" height="54.069" transform="translate(230.709 204.574) rotate(16.689)" fill="#3f3d56"/>
      <path id="Pfad_109" data-name="Pfad 109" d="M398.952,430.629l-.762-.245c.271-.844,6.744-20.695,16.273-23.861l.252.759C405.571,410.321,399.017,430.426,398.952,430.629Z" transform="translate(-162.495 -168.724)" fill="#f43f5e"/>
      <circle id="Ellipse_76" data-name="Ellipse 76" cx="3.999" cy="3.999" r="3.999" transform="translate(252.097 231.579)" fill="#f43f5e"/>
      <path id="Pfad_110" data-name="Pfad 110" d="M417.222,418.442a12.451,12.451,0,0,1-6.233-1.579,11.346,11.346,0,0,1,12.323-.483A12.449,12.449,0,0,1,417.222,418.442Z" transform="translate(-165.519 -170.103)" fill="#f43f5e"/>
    </g>
  </g>
</svg>
